# xmcd
#
# Track frame offsets: 
#        150
#        15854
#        33202
#        48794
#        69554
#        85059
#        107646
#        121673
#        138273
#        154613
#        173308
#        197138
#        211227
#        225596
#        242129
#        256217
#        276941
#        292901
#        309374
#
# Disc length: 4328 seconds
#
# Revision: 0
# Processed by: cddbd v1.5.2PL0 Copyright (c) Steve Scherf et al.
# Submitted via: ExactAudioCopy v1.0b3
#
DISCID=e710e613
DTITLE=Various Artist - Deja Vu Vol.6 Past Is A Future
DYEAR=1999
DGENRE=Dance
TTITLE0=Chris Rea and Shirley Bassey - Disco La Passione
TTITLE1=Garden Eden - Lemon Tree
TTITLE2=Falco - Push! Push!
TTITLE3=Jessica Jay - Maria Magdalena
TTITLE4=Captain Cozmo - The Final Countdown
TTITLE5=Savage feat. Alexia - I Just Died In Your Armas Tonight
TTITLE6=La Cream - Free
TTITLE7=Sugar Ray - Abracadabra
TTITLE8=Secret Service - Flash In The Night
TTITLE9=Patrick Victorid - La Copa De La Vida
TTITLE10=Samoa Park - One Night In Bangkok
TTITLE11=Dana International - Woman In Love
TTITLE12=Mona and Lisa - Yes Sir I Can Boogie
TTITLE13=New Londonbeat - I've Been Thinking About You
TTITLE14=Cometz - Mr. Postman
TTITLE15=Space - Magic Fly
TTITLE16=Valley - To The Moon And Back
TTITLE17=Waldo - The Look
TTITLE18=Killer Loop - Chi Mai
EXTD=
EXTT0=
EXTT1=
EXTT2=
EXTT3=
EXTT4=
EXTT5=
EXTT6=
EXTT7=
EXTT8=
EXTT9=
EXTT10=
EXTT11=
EXTT12=
EXTT13=
EXTT14=
EXTT15=
EXTT16=
EXTT17=
EXTT18=
PLAYORDER=
